<svg width="60" height="60" viewBox="0 0 60 60" fill="none" xmlns="http://www.w3.org/2000/svg">
<rect width="60" height="60" rx="8" fill="url(#paint0_linear_11649_12235)"/>
<path d="M37.4406 21.195L35.6752 22.7038C34.5827 23.6368 33.9055 24.9655 33.7926 26.3977C33.6797 27.83 34.1404 29.2484 35.0733 30.3409L36.1839 31.6424C37.1166 32.7348 37.5773 34.1529 37.4645 35.5849C37.3517 37.0169 36.6748 38.3455 35.5825 39.2784L23.0271 50L28.1959 39.0478C28.6412 38.1043 28.8046 37.0523 28.6664 36.0182C28.5282 34.9842 28.0943 34.012 27.4169 33.2186L24.1956 29.4483C22.253 27.1731 22.8384 24.1752 24.7969 21.8118L35.4832 10L37.4406 21.195Z" fill="white"/>
<defs>
<linearGradient id="paint0_linear_11649_12235" x1="-1.52778" y1="-0.972222" x2="60" y2="60" gradientUnits="userSpaceOnUse">
<stop offset="0.0249942" stop-color="#C59BF0"/>
<stop offset="0.988775" stop-color="#633DA5"/>
</linearGradient>
</defs>
</svg>
