<svg width="56" height="56" viewBox="0 0 56 56" fill="none" xmlns="http://www.w3.org/2000/svg">
<rect width="56" height="56" rx="28" fill="#F5F5F5"/>
<path d="M29.4618 20.9767L28 29.75L26.5381 20.9767C26.5031 20.7645 26.5146 20.5473 26.5719 20.3401C26.6292 20.1328 26.731 19.9406 26.8701 19.7766C27.0092 19.6126 27.1823 19.4809 27.3774 19.3905C27.5725 19.3002 27.785 19.2534 28 19.2534C28.215 19.2534 28.4274 19.3002 28.6226 19.3905C28.8177 19.4809 28.9908 19.6126 29.1299 19.7766C29.269 19.9406 29.3707 20.1328 29.428 20.3401C29.4853 20.5473 29.4969 20.7645 29.4618 20.9767Z" stroke="#1A1A1A" stroke-width="3" stroke-linecap="round" stroke-linejoin="round"/>
<path d="M28 37.3333C28.6444 37.3333 29.1667 36.811 29.1667 36.1667C29.1667 35.5223 28.6444 35 28 35C27.3557 35 26.8334 35.5223 26.8334 36.1667C26.8334 36.811 27.3557 37.3333 28 37.3333Z" stroke="#1A1A1A" stroke-width="2"/>
</svg>
