<svg width="56" height="56" viewBox="0 0 56 56" fill="none" xmlns="http://www.w3.org/2000/svg">
<rect width="56" height="56" rx="28" fill="#F5F5F5"/>
<path d="M30.8805 15.5052C28.3225 15.5083 25.8702 16.5258 24.0614 18.3346C22.2526 20.1434 21.2351 22.5958 21.232 25.1538C21.2337 25.9635 21.3359 26.7698 21.5364 27.5542L16.1266 32.964C15.847 33.2379 15.6404 33.5775 15.5258 33.9519C15.4113 34.3262 15.3924 34.7233 15.4709 35.1068L16.0447 38.0576C16.1353 38.5251 16.3629 38.9551 16.6986 39.2929C17.0343 39.6307 17.4629 39.861 17.9299 39.9545L20.9509 40.5283C21.1065 40.5462 21.2637 40.5462 21.4193 40.5283C21.7331 40.5301 22.0441 40.4689 22.3337 40.3482C22.6234 40.2275 22.8858 40.0498 23.1055 39.8257L28.5035 34.4394C29.2983 34.6495 30.117 34.7558 30.9391 34.7555C33.498 34.7555 35.9522 33.739 37.7617 31.9295C39.5711 30.1201 40.5877 27.6659 40.5877 25.107C40.5877 22.548 39.5711 20.0938 37.7617 18.2844C35.9522 16.4749 33.498 15.4584 30.9391 15.4584L30.8805 15.5052ZM30.8805 33.0694C30.0566 33.0659 29.2384 32.9315 28.4567 32.6712C28.3035 32.6199 28.1389 32.6124 27.9817 32.6497C27.8244 32.6869 27.6807 32.7674 27.5668 32.882L24.7799 35.6572L22.883 33.8422C22.7088 33.7291 22.5002 33.6815 22.2942 33.7076C22.0882 33.7338 21.8981 33.8321 21.7577 33.9851C21.6173 34.1382 21.5357 34.336 21.5274 34.5435C21.519 34.751 21.5844 34.9547 21.712 35.1185L23.5738 36.9101L21.8057 38.6314C21.7315 38.705 21.6405 38.7595 21.5405 38.7901C21.4406 38.8207 21.3347 38.8265 21.232 38.807L18.2695 38.2215C18.144 38.1994 18.0284 38.1392 17.9383 38.0492C17.8482 37.9591 17.7881 37.8435 17.766 37.718L17.1922 34.7789C17.1756 34.6762 17.1828 34.5711 17.2132 34.4716C17.2437 34.3721 17.2966 34.281 17.3678 34.2052L23.1406 28.4324C23.255 28.3183 23.3361 28.1751 23.3753 28.0183C23.4145 27.8616 23.4103 27.6971 23.3631 27.5425C22.8593 25.956 22.87 24.2508 23.3937 22.6707C23.9174 21.0906 24.9274 19.7166 26.2791 18.7451C27.6308 17.7736 29.255 17.2544 30.9196 17.2617C32.5842 17.269 34.2039 17.8024 35.547 18.7857C36.8902 19.769 37.888 21.1518 38.3979 22.7364C38.9078 24.321 38.9035 26.0263 38.3858 27.6083C37.8681 29.1904 36.8634 30.5682 35.5154 31.5449C34.1674 32.5215 32.5451 33.0469 30.8805 33.0459V33.0694ZM30.8805 21.4185C30.1366 21.4162 29.4088 21.6346 28.7891 22.0462C28.1695 22.4578 27.6859 23.0441 27.3996 23.7307C27.1133 24.4173 27.0372 25.1734 27.1809 25.9033C27.3246 26.6332 27.6817 27.304 28.2069 27.8309C28.7321 28.3577 29.4018 28.7169 30.1312 28.8628C30.8607 29.0088 31.617 28.9351 32.3045 28.6509C32.992 28.3668 33.5797 27.885 33.9933 27.2667C34.4068 26.6483 34.6276 25.9211 34.6276 25.1772C34.6306 24.6826 34.5361 24.1923 34.3493 23.7343C34.1625 23.2763 33.8872 22.8597 33.5391 22.5084C33.191 22.157 32.777 21.8778 32.3208 21.6868C31.8646 21.4957 31.3751 21.3966 30.8805 21.3951V21.4185ZM30.8805 27.1678C30.4835 27.1701 30.0948 27.0544 29.7637 26.8352C29.4327 26.6161 29.1742 26.3035 29.0212 25.9372C28.8682 25.5708 28.8276 25.1673 28.9045 24.7778C28.9813 24.3883 29.1723 24.0304 29.453 23.7497C29.7337 23.469 30.0916 23.278 30.4811 23.2011C30.8706 23.1242 31.2742 23.1649 31.6405 23.3179C32.0069 23.4709 32.3195 23.7293 32.5386 24.0604C32.7577 24.3915 32.8735 24.7802 32.8711 25.1772C32.862 25.7001 32.6486 26.1987 32.2766 26.5663C31.9046 26.9339 31.4035 27.1414 30.8805 27.1444V27.1678Z" fill="#1A1A1A"/>
</svg>
