<svg width="18" height="18" viewBox="0 0 18 18" fill="none" xmlns="http://www.w3.org/2000/svg">
<path d="M18.0001 12.3834V5.65009C17.9913 4.17287 17.3983 2.75916 16.3506 1.71772C15.3029 0.676276 13.8857 0.0917333 12.4084 0.0917595V0.0917595H5.6251C4.88518 0.0873353 4.15174 0.22981 3.46728 0.510926C2.78283 0.792041 2.16097 1.20621 1.63776 1.72942C1.11455 2.25263 0.700382 2.87449 0.419266 3.55894C0.13815 4.2434 -0.0043242 4.97684 9.99605e-05 5.71676V12.4501C0.0094811 13.5258 0.328944 14.5759 0.92018 15.4746C1.51142 16.3733 2.34933 17.0823 3.33343 17.5168V17.5168C3.49177 17.5834 3.6501 17.6501 3.80843 17.7001H3.86677L4.35843 17.8334H4.43343C4.58343 17.8334 4.74177 17.8834 4.9001 17.9084H5.0001C5.1751 17.9084 5.35843 17.9084 5.54177 17.9084H5.66677H12.4501C12.6334 17.9084 12.8251 17.9084 13.0084 17.9084H13.1501C13.2929 17.8944 13.4348 17.8721 13.5751 17.8418H13.6501L14.1418 17.7084C14.3251 17.6501 14.5084 17.5751 14.6834 17.5001L15.2084 17.2668C15.6427 17.0126 16.0431 16.7046 16.4001 16.3501C16.9148 15.8268 17.3211 15.207 17.5956 14.5263C17.8702 13.8456 18.0077 13.1174 18.0001 12.3834V12.3834ZM5.54177 16.7668C5.32896 16.7657 5.1168 16.7433 4.90843 16.7001C4.80418 16.6895 4.70102 16.67 4.6001 16.6418L4.40843 16.5501C4.83199 15.6966 5.48547 14.9783 6.29525 14.4761C7.10502 13.974 8.03893 13.7079 8.99177 13.7079C9.9446 13.7079 10.8785 13.974 11.6883 14.4761C12.4981 14.9783 13.1515 15.6966 13.5751 16.5501L13.3918 16.6084L13.1834 16.6501C12.9369 16.7034 12.6856 16.7313 12.4334 16.7334L5.66677 16.7751L5.54177 16.7668ZM14.7084 16.0668C14.1926 14.9892 13.3825 14.0795 12.3717 13.4428C11.3609 12.806 10.1906 12.4681 8.99593 12.4681C7.80128 12.4681 6.63098 12.806 5.62017 13.4428C4.60937 14.0795 3.79928 14.9892 3.28343 16.0668C2.67525 15.6782 2.17376 15.1438 1.8245 14.5122C1.47523 13.8806 1.28925 13.1718 1.28343 12.4501L1.2501 5.71676C1.24786 4.56738 1.70061 3.46382 2.50944 2.64719C3.31826 1.83056 4.41742 1.36723 5.56677 1.35843H12.3501C13.4966 1.36059 14.5959 1.81528 15.4089 2.62364C16.2219 3.43199 16.683 4.52863 16.6918 5.67509V12.4084C16.6965 12.9788 16.5876 13.5444 16.3716 14.0724C16.1556 14.6003 15.8366 15.08 15.4334 15.4834C15.2153 15.7055 14.972 15.9012 14.7084 16.0668V16.0668ZM9.0001 4.18343C8.27985 4.18343 7.57577 4.39701 6.9769 4.79716C6.37803 5.19731 5.91127 5.76606 5.63564 6.43149C5.36001 7.09691 5.28789 7.82913 5.42841 8.53555C5.56892 9.24196 5.91576 9.89084 6.42505 10.4001C6.93435 10.9094 7.58323 11.2563 8.28965 11.3968C8.99606 11.5373 9.72828 11.4652 10.3937 11.1896C11.0591 10.9139 11.6279 10.4472 12.028 9.84829C12.4282 9.24942 12.6418 8.54535 12.6418 7.82509C12.6418 6.85926 12.2581 5.93299 11.5751 5.25005C10.8922 4.5671 9.96593 4.18343 9.0001 4.18343V4.18343ZM9.0001 10.2168C8.52707 10.2168 8.06467 10.0765 7.67136 9.81369C7.27805 9.55089 6.97151 9.17736 6.79049 8.74034C6.60947 8.30332 6.56211 7.82244 6.65439 7.3585C6.74667 6.89456 6.97446 6.46841 7.30894 6.13393C7.64342 5.79945 8.06957 5.57166 8.53351 5.47938C8.99745 5.3871 9.47833 5.43446 9.91535 5.61548C10.3524 5.7965 10.7259 6.10305 10.9887 6.49635C11.2515 6.88966 11.3918 7.35207 11.3918 7.82509C11.3896 8.45873 11.1369 9.06578 10.6888 9.51383C10.2408 9.96188 9.63373 10.2146 9.0001 10.2168V10.2168Z" fill="#666666"/>
</svg>
